<?xml version="1.0" standalone="no"?>
<!DOCTYPE svg PUBLIC "-//W3C//DTD SVG 20010904//EN"
 "http://www.w3.org/TR/2001/REC-SVG-20010904/DTD/svg10.dtd">
<svg version="1.0" xmlns="http://www.w3.org/2000/svg"
 width="1345.000000pt" height="545.000000pt" viewBox="0 0 1345.000000 545.000000"
 preserveAspectRatio="xMidYMid meet">

<g transform="translate(0.000000,545.000000) scale(0.100000,-0.100000)"
fill="#000000" stroke="none">
<path d="M0 2725 l0 -2725 6725 0 6725 0 0 2725 0 2725 -6725 0 -6725 0 0
-2725z m6900 1420 l0 -485 -60 0 -60 0 -2 418 -3 417 -2722 3 -2723 2 0 -1805
0 -1805 2723 2 2722 3 3 417 2 418 60 0 60 0 0 -485 0 -485 -2850 0 -2850 0 0
1935 0 1935 2850 0 2850 0 0 -485z m1946 -661 c47 -13 117 -40 157 -60 68 -34
197 -128 197 -142 0 -4 -14 -22 -31 -40 l-29 -33 -60 46 c-78 60 -187 110
-297 136 -74 18 -107 20 -203 16 -200 -10 -343 -70 -471 -197 -131 -130 -199
-304 -199 -507 0 -230 69 -405 213 -540 127 -118 291 -177 497 -176 168 0 296
40 430 134 l60 42 0 233 0 234 -280 0 -280 0 0 50 0 50 335 0 335 0 0 -305 0
-305 -67 -55 c-180 -148 -406 -213 -647 -186 -365 41 -619 268 -691 616 -32
159 -16 394 36 529 106 269 341 448 639 485 112 14 257 4 356 -25z m-5916
-786 c195 -435 357 -795 358 -799 2 -5 -25 -9 -60 -9 l-63 1 -89 199 -88 200
-483 0 -482 0 -88 -200 -88 -200 -64 0 c-58 0 -63 2 -54 18 7 13 525 1165 687
1530 l24 52 67 0 68 0 355 -792z m2955 772 c96 -25 155 -58 222 -126 103 -106
157 -276 135 -426 -22 -153 -105 -276 -232 -342 -71 -38 -174 -66 -242 -66
-21 0 -38 -3 -38 -6 0 -5 408 -452 514 -561 l50 -53 -79 0 -80 1 -275 304
-275 304 -222 0 -223 1 0 -305 0 -305 -60 0 -60 0 0 800 0 800 393 0 c361 0
400 -2 472 -20z m-2311 -11 c21 -16 26 -29 26 -64 0 -35 -5 -48 -26 -64 -60
-47 -144 -10 -144 64 0 74 84 111 144 64z m3606 -445 c93 -27 186 -82 241
-142 88 -97 126 -197 136 -359 l6 -103 -517 0 -517 0 6 -37 c17 -98 66 -200
123 -256 123 -119 305 -164 485 -118 99 26 174 63 224 112 l40 39 36 -28 c20
-15 36 -30 37 -33 0 -16 -111 -107 -168 -137 -127 -68 -329 -92 -467 -57 -158
40 -293 148 -357 285 -47 100 -61 162 -60 284 1 279 176 501 442 561 80 18
231 13 310 -11z m3085 0 c167 -45 283 -150 342 -310 19 -53 26 -95 31 -181 l5
-113 -513 0 -513 0 6 -52 c9 -75 68 -188 129 -248 57 -56 145 -102 226 -119
157 -33 359 17 473 117 l44 40 34 -29 c35 -28 35 -28 15 -51 -70 -80 -188
-146 -309 -173 -104 -23 -266 -17 -354 14 -244 85 -383 306 -368 585 8 166 62
283 181 393 72 68 164 117 256 138 79 18 227 13 315 -11z m1338 7 c93 -24 139
-47 198 -100 59 -51 105 -123 132 -204 20 -58 21 -88 25 -444 l3 -383 -55 0
-55 0 -3 388 -3 387 -31 65 c-57 120 -146 181 -292 202 -234 34 -428 -102
-472 -331 -5 -30 -10 -201 -10 -382 l0 -329 -50 0 -50 0 0 565 0 565 50 0 50
0 1 -102 c0 -100 1 -102 17 -78 112 165 326 236 545 181z m-8033 -561 l0 -570
-55 0 -55 0 0 570 0 570 55 0 55 0 0 -570z m1130 155 l0 -55 -400 0 -400 0 0
55 0 55 400 0 400 0 0 -55z"/>
<path d="M2287 2893 l-215 -488 431 -3 c236 -1 432 -1 433 1 4 3 -419 963
-428 972 -3 3 -102 -214 -221 -482z"/>
<path d="M5140 3001 l0 -391 308 0 c333 0 398 8 489 53 123 63 195 211 180
371 -10 105 -41 172 -113 243 -52 51 -75 66 -131 84 -64 21 -89 23 -400 27
l-333 4 0 -391z"/>
<path d="M6876 2929 c-173 -41 -310 -196 -341 -386 l-7 -43 466 0 466 0 0 30
c0 51 -22 133 -50 190 -51 101 -144 173 -265 205 -64 16 -206 19 -269 4z"/>
<path d="M9940 2921 c-106 -34 -185 -91 -241 -175 -40 -60 -79 -167 -79 -217
l0 -29 461 0 462 0 -6 71 c-19 224 -197 370 -451 368 -58 0 -111 -6 -146 -18z"/>
</g>
</svg>
